<mxfile host="app.diagrams.net" modified="2021-10-21T14:08:05.010Z" agent="5.0 (Windows NT 10.0; Win64; x64) AppleWebKit/537.36 (KHTML, like Gecko) Chrome/94.0.4606.81 Safari/537.36" etag="h6DqJ8VVXRfsy91Q-7Qs" version="15.5.8" type="github">
  <diagram id="C5RBs43oDa-KdzZeNtuy" name="Page-1">
    <mxGraphModel dx="2500" dy="908" grid="1" gridSize="10" guides="1" tooltips="1" connect="1" arrows="1" fold="1" page="1" pageScale="1" pageWidth="827" pageHeight="1169" background="#F4F1DE" math="0" shadow="0">
      <root>
        <mxCell id="WIyWlLk6GJQsqaUBKTNV-0" />
        <mxCell id="WIyWlLk6GJQsqaUBKTNV-1" parent="WIyWlLk6GJQsqaUBKTNV-0" />
        <mxCell id="JCjy0Tv-0JIhWBNM6Qae-5" value="yes" style="edgeStyle=orthogonalEdgeStyle;rounded=0;orthogonalLoop=1;jettySize=auto;html=1;exitX=0;exitY=0.5;exitDx=0;exitDy=0;strokeColor=#E07A5F;fontColor=#393C56;fillColor=#F2CC8F;jumpSize=6;fontSize=15;labelBackgroundColor=#F4F1DE;" edge="1" parent="WIyWlLk6GJQsqaUBKTNV-1" source="JCjy0Tv-0JIhWBNM6Qae-0" target="JCjy0Tv-0JIhWBNM6Qae-4">
          <mxGeometry relative="1" as="geometry" />
        </mxCell>
        <mxCell id="JCjy0Tv-0JIhWBNM6Qae-7" value="no" style="edgeStyle=orthogonalEdgeStyle;rounded=0;orthogonalLoop=1;jettySize=auto;html=1;entryX=0;entryY=0.5;entryDx=0;entryDy=0;strokeColor=#E07A5F;fontColor=#393C56;fillColor=#F2CC8F;jumpSize=6;fontSize=15;labelBackgroundColor=#F4F1DE;" edge="1" parent="WIyWlLk6GJQsqaUBKTNV-1" source="JCjy0Tv-0JIhWBNM6Qae-0" target="JCjy0Tv-0JIhWBNM6Qae-13">
          <mxGeometry relative="1" as="geometry">
            <mxPoint x="560" y="160" as="targetPoint" />
          </mxGeometry>
        </mxCell>
        <mxCell id="JCjy0Tv-0JIhWBNM6Qae-0" value="Is enabled&lt;br&gt;approval ?" style="rhombus;whiteSpace=wrap;html=1;fillColor=#F2CC8F;strokeColor=#E07A5F;fontColor=#393C56;" vertex="1" parent="WIyWlLk6GJQsqaUBKTNV-1">
          <mxGeometry x="354" y="100" width="120" height="120" as="geometry" />
        </mxCell>
        <mxCell id="JCjy0Tv-0JIhWBNM6Qae-2" value="" style="edgeStyle=orthogonalEdgeStyle;rounded=0;orthogonalLoop=1;jettySize=auto;html=1;strokeColor=#E07A5F;fontColor=#393C56;labelBackgroundColor=#F4F1DE;" edge="1" parent="WIyWlLk6GJQsqaUBKTNV-1" source="JCjy0Tv-0JIhWBNM6Qae-1" target="JCjy0Tv-0JIhWBNM6Qae-0">
          <mxGeometry relative="1" as="geometry" />
        </mxCell>
        <mxCell id="JCjy0Tv-0JIhWBNM6Qae-1" value="Team creation" style="rounded=0;whiteSpace=wrap;html=1;fillColor=#F2CC8F;strokeColor=#E07A5F;fontColor=#393C56;" vertex="1" parent="WIyWlLk6GJQsqaUBKTNV-1">
          <mxGeometry x="354" width="120" height="60" as="geometry" />
        </mxCell>
        <mxCell id="JCjy0Tv-0JIhWBNM6Qae-12" value="no&lt;br style=&quot;font-size: 15px;&quot;&gt;" style="edgeStyle=orthogonalEdgeStyle;rounded=0;orthogonalLoop=1;jettySize=auto;html=1;strokeColor=#E07A5F;fontColor=#393C56;fillColor=#F2CC8F;jumpSize=6;fontSize=15;entryX=0;entryY=0.5;entryDx=0;entryDy=0;entryPerimeter=0;labelBackgroundColor=#F4F1DE;" edge="1" parent="WIyWlLk6GJQsqaUBKTNV-1" source="JCjy0Tv-0JIhWBNM6Qae-4">
          <mxGeometry relative="1" as="geometry">
            <mxPoint x="220" y="295" as="targetPoint" />
          </mxGeometry>
        </mxCell>
        <mxCell id="JCjy0Tv-0JIhWBNM6Qae-4" value="Is creation with application permissions ?" style="rhombus;whiteSpace=wrap;html=1;fillColor=#F2CC8F;strokeColor=#E07A5F;fontColor=#393C56;" vertex="1" parent="WIyWlLk6GJQsqaUBKTNV-1">
          <mxGeometry x="160" y="100" width="120" height="120" as="geometry" />
        </mxCell>
        <mxCell id="JCjy0Tv-0JIhWBNM6Qae-13" value="Is creation with application permissions ?" style="rhombus;whiteSpace=wrap;html=1;fillColor=#F2CC8F;strokeColor=#E07A5F;fontColor=#393C56;" vertex="1" parent="WIyWlLk6GJQsqaUBKTNV-1">
          <mxGeometry x="550" y="100" width="120" height="120" as="geometry" />
        </mxCell>
        <mxCell id="JCjy0Tv-0JIhWBNM6Qae-31" value="" style="rhombus;whiteSpace=wrap;html=1;rounded=0;fontSize=15;fontColor=#393C56;align=left;strokeWidth=1;fillColor=#F2CC8F;sketch=0;strokeColor=#E07A5F;" vertex="1" parent="WIyWlLk6GJQsqaUBKTNV-1">
          <mxGeometry x="750" y="420" width="120" height="120" as="geometry" />
        </mxCell>
        <mxCell id="JCjy0Tv-0JIhWBNM6Qae-32" value="" style="rhombus;whiteSpace=wrap;html=1;rounded=0;fontSize=15;fontColor=#393C56;align=left;strokeWidth=1;fillColor=#F2CC8F;sketch=0;strokeColor=#E07A5F;" vertex="1" parent="WIyWlLk6GJQsqaUBKTNV-1">
          <mxGeometry x="1000" y="430" width="120" height="120" as="geometry" />
        </mxCell>
        <mxCell id="JCjy0Tv-0JIhWBNM6Qae-33" value="" style="edgeStyle=orthogonalEdgeStyle;rounded=0;orthogonalLoop=1;jettySize=auto;html=1;strokeColor=#E07A5F;fontColor=#393C56;fillColor=#F2CC8F;jumpSize=6;fontSize=15;endArrow=classic;endFill=1;entryX=0.5;entryY=0;entryDx=0;entryDy=0;labelBackgroundColor=#F4F1DE;" edge="1" parent="WIyWlLk6GJQsqaUBKTNV-1" target="JCjy0Tv-0JIhWBNM6Qae-31" source="JCjy0Tv-0JIhWBNM6Qae-13">
          <mxGeometry x="0.2353" relative="1" as="geometry">
            <mxPoint x="1090" y="160" as="sourcePoint" />
            <mxPoint x="980" y="360" as="targetPoint" />
            <Array as="points">
              <mxPoint x="850" y="160" />
              <mxPoint x="850" y="240" />
              <mxPoint x="810" y="240" />
            </Array>
            <mxPoint as="offset" />
          </mxGeometry>
        </mxCell>
        <mxCell id="JCjy0Tv-0JIhWBNM6Qae-35" value="no&lt;br style=&quot;font-size: 15px;&quot;&gt;" style="edgeStyle=orthogonalEdgeStyle;rounded=0;orthogonalLoop=1;jettySize=auto;html=1;strokeColor=#E07A5F;fontColor=#393C56;fillColor=#F2CC8F;jumpSize=6;fontSize=15;entryX=0.5;entryY=0;entryDx=0;entryDy=0;labelBackgroundColor=#F4F1DE;" edge="1" parent="WIyWlLk6GJQsqaUBKTNV-1" source="JCjy0Tv-0JIhWBNM6Qae-13" target="JCjy0Tv-0JIhWBNM6Qae-37">
          <mxGeometry x="-0.8235" relative="1" as="geometry">
            <mxPoint x="260" y="350" as="sourcePoint" />
            <mxPoint x="610" y="330" as="targetPoint" />
            <Array as="points">
              <mxPoint x="610" y="320" />
            </Array>
            <mxPoint as="offset" />
          </mxGeometry>
        </mxCell>
        <mxCell id="JCjy0Tv-0JIhWBNM6Qae-37" value="" style="rhombus;whiteSpace=wrap;html=1;rounded=0;fontSize=15;fontColor=#393C56;align=left;strokeWidth=1;fillColor=#F2CC8F;sketch=0;strokeColor=#E07A5F;" vertex="1" parent="WIyWlLk6GJQsqaUBKTNV-1">
          <mxGeometry x="370" y="380" width="120" height="120" as="geometry" />
        </mxCell>
        <mxCell id="JCjy0Tv-0JIhWBNM6Qae-34" value="yes" style="edgeStyle=orthogonalEdgeStyle;rounded=0;orthogonalLoop=1;jettySize=auto;html=1;strokeColor=#E07A5F;fontColor=#393C56;fillColor=#F2CC8F;jumpSize=6;fontSize=15;endArrow=classic;endFill=1;entryX=0.5;entryY=0;entryDx=0;entryDy=0;labelBackgroundColor=#F4F1DE;" edge="1" parent="WIyWlLk6GJQsqaUBKTNV-1" target="JCjy0Tv-0JIhWBNM6Qae-32" source="JCjy0Tv-0JIhWBNM6Qae-13">
          <mxGeometry x="-0.7419" relative="1" as="geometry">
            <mxPoint x="760" y="200" as="sourcePoint" />
            <mxPoint x="875" y="320" as="targetPoint" />
            <Array as="points">
              <mxPoint x="850" y="160" />
              <mxPoint x="850" y="240" />
              <mxPoint x="1060" y="240" />
            </Array>
            <mxPoint as="offset" />
          </mxGeometry>
        </mxCell>
        <mxCell id="JCjy0Tv-0JIhWBNM6Qae-38" value="" style="edgeStyle=orthogonalEdgeStyle;rounded=0;orthogonalLoop=1;jettySize=auto;html=1;strokeColor=#E07A5F;fontColor=#393C56;fillColor=#F2CC8F;jumpSize=6;fontSize=15;entryX=0.5;entryY=0;entryDx=0;entryDy=0;labelBackgroundColor=#F4F1DE;" edge="1" parent="WIyWlLk6GJQsqaUBKTNV-1" target="JCjy0Tv-0JIhWBNM6Qae-39" source="JCjy0Tv-0JIhWBNM6Qae-13">
          <mxGeometry relative="1" as="geometry">
            <mxPoint x="800" y="220" as="sourcePoint" />
            <mxPoint x="800" y="330" as="targetPoint" />
            <Array as="points">
              <mxPoint x="610" y="320" />
              <mxPoint x="620" y="320" />
            </Array>
          </mxGeometry>
        </mxCell>
        <mxCell id="JCjy0Tv-0JIhWBNM6Qae-39" value="" style="rhombus;whiteSpace=wrap;html=1;rounded=0;fontSize=15;fontColor=#393C56;align=left;strokeWidth=1;fillColor=#F2CC8F;sketch=0;strokeColor=#E07A5F;" vertex="1" parent="WIyWlLk6GJQsqaUBKTNV-1">
          <mxGeometry x="560" y="400" width="120" height="120" as="geometry" />
        </mxCell>
        <mxCell id="JCjy0Tv-0JIhWBNM6Qae-41" value="Approver/Requester management" style="shape=process;whiteSpace=wrap;html=1;backgroundOutline=1;rounded=0;sketch=0;fontSize=15;fontColor=#393C56;strokeColor=#E07A5F;strokeWidth=1;fillColor=#F2CC8F;" vertex="1" parent="WIyWlLk6GJQsqaUBKTNV-1">
          <mxGeometry x="-200" y="280" width="180" height="90" as="geometry" />
        </mxCell>
        <mxCell id="JCjy0Tv-0JIhWBNM6Qae-42" value="yes" style="edgeStyle=orthogonalEdgeStyle;rounded=0;orthogonalLoop=1;jettySize=auto;html=1;strokeColor=#E07A5F;fontColor=#393C56;fillColor=#F2CC8F;jumpSize=6;fontSize=15;exitX=0;exitY=0.5;exitDx=0;exitDy=0;labelBackgroundColor=#F4F1DE;" edge="1" parent="WIyWlLk6GJQsqaUBKTNV-1" source="JCjy0Tv-0JIhWBNM6Qae-4" target="JCjy0Tv-0JIhWBNM6Qae-41">
          <mxGeometry x="-0.3846" relative="1" as="geometry">
            <mxPoint x="110" y="170" as="sourcePoint" />
            <mxPoint x="290" y="170" as="targetPoint" />
            <mxPoint as="offset" />
          </mxGeometry>
        </mxCell>
        <mxCell id="JCjy0Tv-0JIhWBNM6Qae-47" value="Keep&lt;br&gt;approver&lt;br&gt;as owner ?" style="rhombus;whiteSpace=wrap;html=1;fillColor=#F2CC8F;strokeColor=#E07A5F;fontColor=#393C56;" vertex="1" parent="WIyWlLk6GJQsqaUBKTNV-1">
          <mxGeometry x="-450" y="265" width="120" height="120" as="geometry" />
        </mxCell>
        <mxCell id="JCjy0Tv-0JIhWBNM6Qae-50" value="Approver" style="shape=flexArrow;endArrow=classic;html=1;rounded=1;sketch=0;fontColor=#393C56;strokeColor=#E07A5F;fillColor=#F2CC8F;curved=0;labelBackgroundColor=#F4F1DE;" edge="1" parent="WIyWlLk6GJQsqaUBKTNV-1" source="JCjy0Tv-0JIhWBNM6Qae-41" target="JCjy0Tv-0JIhWBNM6Qae-47">
          <mxGeometry x="-0.0769" y="-15" width="50" height="50" relative="1" as="geometry">
            <mxPoint x="-240" y="340" as="sourcePoint" />
            <mxPoint x="80" y="290" as="targetPoint" />
            <mxPoint as="offset" />
          </mxGeometry>
        </mxCell>
        <mxCell id="JCjy0Tv-0JIhWBNM6Qae-51" value="no&lt;br style=&quot;font-size: 15px;&quot;&gt;" style="edgeStyle=orthogonalEdgeStyle;rounded=0;orthogonalLoop=1;jettySize=auto;html=1;strokeColor=#E07A5F;fontColor=#393C56;fillColor=#F2CC8F;jumpSize=6;fontSize=15;entryX=0;entryY=0.5;entryDx=0;entryDy=0;entryPerimeter=0;labelBackgroundColor=#F4F1DE;" edge="1" parent="WIyWlLk6GJQsqaUBKTNV-1" source="JCjy0Tv-0JIhWBNM6Qae-47">
          <mxGeometry relative="1" as="geometry">
            <mxPoint x="-390" y="390" as="sourcePoint" />
            <mxPoint x="-390" y="465" as="targetPoint" />
          </mxGeometry>
        </mxCell>
        <mxCell id="JCjy0Tv-0JIhWBNM6Qae-52" value="yes" style="edgeStyle=orthogonalEdgeStyle;rounded=0;orthogonalLoop=1;jettySize=auto;html=1;strokeColor=#E07A5F;fontColor=#393C56;fillColor=#F2CC8F;jumpSize=6;fontSize=15;labelBackgroundColor=#F4F1DE;" edge="1" parent="WIyWlLk6GJQsqaUBKTNV-1" source="JCjy0Tv-0JIhWBNM6Qae-47">
          <mxGeometry x="-0.3846" relative="1" as="geometry">
            <mxPoint x="-450" y="330" as="sourcePoint" />
            <mxPoint x="-650" y="470" as="targetPoint" />
            <mxPoint as="offset" />
            <Array as="points">
              <mxPoint x="-650" y="325" />
              <mxPoint x="-650" y="450" />
            </Array>
          </mxGeometry>
        </mxCell>
        <mxCell id="JCjy0Tv-0JIhWBNM6Qae-59" value="" style="group" vertex="1" connectable="0" parent="WIyWlLk6GJQsqaUBKTNV-1">
          <mxGeometry x="-660" y="110" width="455.01" height="164.85" as="geometry" />
        </mxCell>
        <mxCell id="JCjy0Tv-0JIhWBNM6Qae-54" value="" style="strokeWidth=2;html=1;shape=mxgraph.flowchart.annotation_2;align=left;labelPosition=right;pointerEvents=1;rounded=0;sketch=0;fontColor=#393C56;fillColor=#F2CC8F;rotation=90;" vertex="1" parent="JCjy0Tv-0JIhWBNM6Qae-59">
          <mxGeometry x="162.76623349888905" y="-130.00394309806177" width="129.47753300222195" height="459.07392398920183" as="geometry" />
        </mxCell>
        <mxCell id="JCjy0Tv-0JIhWBNM6Qae-56" value="Still relevant ?" style="text;html=1;strokeColor=none;fillColor=none;align=center;verticalAlign=middle;whiteSpace=wrap;rounded=0;sketch=0;fontColor=#393C56;fontSize=22;" vertex="1" parent="JCjy0Tv-0JIhWBNM6Qae-59">
          <mxGeometry x="145.02" width="164.98" height="30" as="geometry" />
        </mxCell>
      </root>
    </mxGraphModel>
  </diagram>
</mxfile>
